ISO-10303-21;
HEADER;
FILE_DESCRIPTION(('Open CASCADE Model'),'2;1');
FILE_NAME('Open CASCADE Shape Model','2026-05-12T13:21:13',('Author'),(
    'Open CASCADE'),'Open CASCADE STEP processor 7.8','Open CASCADE 7.8'
  ,'Unknown');
FILE_SCHEMA(('AUTOMOTIVE_DESIGN { 1 0 10303 214 1 1 1 1 }'));
ENDSEC;
DATA;
#1 = APPLICATION_PROTOCOL_DEFINITION('international standard',
  'automotive_design',2000,#2);
#2 = APPLICATION_CONTEXT(
  'core data for automotive mechanical design processes');
#3 = SHAPE_DEFINITION_REPRESENTATION(#4,#10);
#4 = PRODUCT_DEFINITION_SHAPE('','',#5);
#5 = PRODUCT_DEFINITION('design','',#6,#9);
#6 = PRODUCT_DEFINITION_FORMATION('','',#7);
#7 = PRODUCT('Open CASCADE STEP translator 7.8 1',
  'Open CASCADE STEP translator 7.8 1','',(#8));
#8 = PRODUCT_CONTEXT('',#2,'mechanical');
#9 = PRODUCT_DEFINITION_CONTEXT('part definition',#2,'design');
#10 = ADVANCED_BREP_SHAPE_REPRESENTATION('',(#11,#15),#885);
#11 = AXIS2_PLACEMENT_3D('',#12,#13,#14);
#12 = CARTESIAN_POINT('',(0.,0.,0.));
#13 = DIRECTION('',(0.,0.,1.));
#14 = DIRECTION('',(1.,0.,-0.));
#15 = MANIFOLD_SOLID_BREP('',#16);
#16 = CLOSED_SHELL('',(#17,#632,#875,#880));
#17 = ADVANCED_FACE('',(#18),#81,.T.);
#18 = FACE_BOUND('',#19,.T.);
#19 = EDGE_LOOP('',(#20,#305,#485,#611));
#20 = ORIENTED_EDGE('',*,*,#21,.T.);
#21 = EDGE_CURVE('',#22,#24,#26,.T.);
#22 = VERTEX_POINT('',#23);
#23 = CARTESIAN_POINT('',(5.,0.,8.308230419112E-17));
#24 = VERTEX_POINT('',#25);
#25 = CARTESIAN_POINT('',(0.,0.,0.));
#26 = SURFACE_CURVE('',#27,(#80,#244),.PCURVE_S1.);
#27 = B_SPLINE_CURVE_WITH_KNOTS('',3,(#28,#29,#30,#31,#32,#33,#34,#35,
    #36,#37,#38,#39,#40,#41,#42,#43,#44,#45,#46,#47,#48,#49,#50,#51,#52,
    #53,#54,#55,#56,#57,#58,#59,#60,#61,#62,#63,#64,#65,#66,#67,#68,#69,
    #70,#71,#72,#73,#74,#75,#76,#77,#78,#79),.UNSPECIFIED.,.F.,.F.,(4,1,
    1,1,1,1,1,1,1,1,1,1,1,1,1,1,1,1,1,1,1,1,1,1,1,1,1,1,1,1,1,1,1,1,1,1,
    1,1,1,1,1,1,1,1,1,1,1,1,1,4),(0.,2.040816326531E-02,
    4.081632653061E-02,6.122448979592E-02,8.163265306122E-02,
    0.102040816327,0.122448979592,0.142857142857,0.163265306122,
    0.183673469388,0.204081632653,0.224489795918,0.244897959184,
    0.265306122449,0.285714285714,0.30612244898,0.326530612245,
    0.34693877551,0.367346938776,0.387755102041,0.408163265306,
    0.428571428571,0.448979591837,0.469387755102,0.489795918367,
    0.510204081633,0.530612244898,0.551020408163,0.571428571429,
    0.591836734694,0.612244897959,0.632653061224,0.65306122449,
    0.673469387755,0.69387755102,0.714285714286,0.734693877551,
    0.755102040816,0.775510204082,0.795918367347,0.816326530612,
    0.836734693878,0.857142857143,0.877551020408,0.897959183673,
    0.918367346939,0.938775510204,0.959183673469,0.979591836735,1.),
  .QUASI_UNIFORM_KNOTS.);
#28 = CARTESIAN_POINT('',(5.,0.,8.308230419112E-17));
#29 = CARTESIAN_POINT('',(5.000003769975,0.,6.481057720041E-07));
#30 = CARTESIAN_POINT('',(4.996538348294,0.,-2.689539414907E-04));
#31 = CARTESIAN_POINT('',(4.980993747893,0.,-1.473473318954E-03));
#32 = CARTESIAN_POINT('',(4.955157444786,0.,-3.46846383803E-03));
#33 = CARTESIAN_POINT('',(4.919145985588,0.,-6.234013766633E-03));
#34 = CARTESIAN_POINT('',(4.873115591576,0.,-9.744455915674E-03));
#35 = CARTESIAN_POINT('',(4.817266927655,0.,-1.396844412417E-02));
#36 = CARTESIAN_POINT('',(4.751842365204,0.,-1.887041627267E-02));
#37 = CARTESIAN_POINT('',(4.677124982959,0.,-2.441175183788E-02));
#38 = CARTESIAN_POINT('',(4.593436862719,0.,-3.055193598345E-02));
#39 = CARTESIAN_POINT('',(4.501137368006,0.,-3.724950725125E-02));
#40 = CARTESIAN_POINT('',(4.400621252341,0.,-4.446272255816E-02));
#41 = CARTESIAN_POINT('',(4.292316665057,0.,-5.214985507661E-02));
#42 = CARTESIAN_POINT('',(4.176683057996,0.,-6.026907830698E-02));
#43 = CARTESIAN_POINT('',(4.054209007999,0.,-6.877791923943E-02));
#44 = CARTESIAN_POINT('',(3.925409961574,0.,-7.763229938467E-02));
#45 = CARTESIAN_POINT('',(3.790825906241,0.,-8.678521757009E-02));
#46 = CARTESIAN_POINT('',(3.651018969971,0.,-9.618516171729E-02));
#47 = CARTESIAN_POINT('',(3.506570953079,0.,-0.105774364192));
#48 = CARTESIAN_POINT('',(3.35808078613,0.,-0.115487039602));
#49 = CARTESIAN_POINT('',(3.206161955143,0.,-0.125247744671));
#50 = CARTESIAN_POINT('',(3.051439771337,0.,-0.134970045354));
#51 = CARTESIAN_POINT('',(2.89454899377,0.,-0.144555506625));
#52 = CARTESIAN_POINT('',(2.736129979084,0.,-0.153893603947));
#53 = CARTESIAN_POINT('',(2.57683026461,0.,-0.162860879094));
#54 = CARTESIAN_POINT('',(2.417285919905,0.,-0.171326016354));
#55 = CARTESIAN_POINT('',(2.258178570371,0.,-0.179136162303));
#56 = CARTESIAN_POINT('',(2.100010299487,0.,-0.186176620102));
#57 = CARTESIAN_POINT('',(1.943931850179,0.,-0.192159902027));
#58 = CARTESIAN_POINT('',(1.791380450887,0.,-0.197686226177));
#59 = CARTESIAN_POINT('',(1.641427132896,0.,-0.202581926928));
#60 = CARTESIAN_POINT('',(1.495048895865,0.,-0.206653871283));
#61 = CARTESIAN_POINT('',(1.352693115329,0.,-0.209716443628));
#62 = CARTESIAN_POINT('',(1.214928993765,0.,-0.21159024534));
#63 = CARTESIAN_POINT('',(1.082272005679,0.,-0.212107973309));
#64 = CARTESIAN_POINT('',(0.955230016087,0.,-0.211117718274));
#65 = CARTESIAN_POINT('',(0.834289985992,0.,-0.208486077586));
#66 = CARTESIAN_POINT('',(0.719920489483,0.,-0.204100269617));
#67 = CARTESIAN_POINT('',(0.612569803594,0.,-0.197869355607));
#68 = CARTESIAN_POINT('',(0.512664928823,0.,-0.189724494111));
#69 = CARTESIAN_POINT('',(0.420610063919,0.,-0.179618269473));
#70 = CARTESIAN_POINT('',(0.336784917519,0.,-0.167523170766));
#71 = CARTESIAN_POINT('',(0.261542775793,0.,-0.153429349115));
#72 = CARTESIAN_POINT('',(0.195208386449,0.,-0.137341818033));
#73 = CARTESIAN_POINT('',(0.138075760503,0.,-0.119277294838));
#74 = CARTESIAN_POINT('',(9.04058138251E-02,0.,-9.926088349455E-02));
#75 = CARTESIAN_POINT('',(5.242454552432E-02,0.,-7.732286083215E-02));
#76 = CARTESIAN_POINT('',(2.431959182248E-02,0.,-5.349560961649E-02));
#77 = CARTESIAN_POINT('',(6.243673070623E-03,0.,-2.781150940241E-02));
#78 = CARTESIAN_POINT('',(9.436044293816E-04,0.,-9.470255062013E-03));
#79 = CARTESIAN_POINT('',(0.,0.,0.));
#80 = PCURVE('',#81,#238);
#81 = B_SPLINE_SURFACE_WITH_KNOTS('',3,2,(
    (#82,#83,#84)
    ,(#85,#86,#87)
    ,(#88,#89,#90)
    ,(#91,#92,#93)
    ,(#94,#95,#96)
    ,(#97,#98,#99)
    ,(#100,#101,#102)
    ,(#103,#104,#105)
    ,(#106,#107,#108)
    ,(#109,#110,#111)
    ,(#112,#113,#114)
    ,(#115,#116,#117)
    ,(#118,#119,#120)
    ,(#121,#122,#123)
    ,(#124,#125,#126)
    ,(#127,#128,#129)
    ,(#130,#131,#132)
    ,(#133,#134,#135)
    ,(#136,#137,#138)
    ,(#139,#140,#141)
    ,(#142,#143,#144)
    ,(#145,#146,#147)
    ,(#148,#149,#150)
    ,(#151,#152,#153)
    ,(#154,#155,#156)
    ,(#157,#158,#159)
    ,(#160,#161,#162)
    ,(#163,#164,#165)
    ,(#166,#167,#168)
    ,(#169,#170,#171)
    ,(#172,#173,#174)
    ,(#175,#176,#177)
    ,(#178,#179,#180)
    ,(#181,#182,#183)
    ,(#184,#185,#186)
    ,(#187,#188,#189)
    ,(#190,#191,#192)
    ,(#193,#194,#195)
    ,(#196,#197,#198)
    ,(#199,#200,#201)
    ,(#202,#203,#204)
    ,(#205,#206,#207)
    ,(#208,#209,#210)
    ,(#211,#212,#213)
    ,(#214,#215,#216)
    ,(#217,#218,#219)
    ,(#220,#221,#222)
    ,(#223,#224,#225)
    ,(#226,#227,#228)
    ,(#229,#230,#231)
    ,(#232,#233,#234)
    ,(#235,#236,#237
    )),.UNSPECIFIED.,.F.,.F.,.F.,(4,1,1,1,1,1,1,1,1,1,1,1,1,1,1,1,1,1,1,
    1,1,1,1,1,1,1,1,1,1,1,1,1,1,1,1,1,1,1,1,1,1,1,1,1,1,1,1,1,1,4),(3,3)
  ,(0.,2.040816326531E-02,4.081632653061E-02,6.122448979592E-02,
    8.163265306122E-02,0.102040816327,0.122448979592,0.142857142857,
    0.163265306122,0.183673469388,0.204081632653,0.224489795918,
    0.244897959184,0.265306122449,0.285714285714,0.30612244898,
    0.326530612245,0.34693877551,0.367346938776,0.387755102041,
    0.408163265306,0.428571428571,0.448979591837,0.469387755102,
    0.489795918367,0.510204081633,0.530612244898,0.551020408163,
    0.571428571429,0.591836734694,0.612244897959,0.632653061224,
    0.65306122449,0.673469387755,0.69387755102,0.714285714286,
    0.734693877551,0.755102040816,0.775510204082,0.795918367347,
    0.816326530612,0.836734693878,0.857142857143,0.877551020408,
    0.897959183673,0.918367346939,0.938775510204,0.959183673469,
    0.979591836735,1.),(0.,1.),.UNSPECIFIED.);
#82 = CARTESIAN_POINT('',(5.,0.,8.308230419112E-17));
#83 = CARTESIAN_POINT('',(6.997307436162,7.5,5.815761293379E-17));
#84 = CARTESIAN_POINT('',(8.994614872325,15.,3.323292167645E-17));
#85 = CARTESIAN_POINT('',(5.000003769975,0.,6.481057720041E-07));
#86 = CARTESIAN_POINT('',(6.997310075145,7.5,4.536740404028E-07));
#87 = CARTESIAN_POINT('',(8.994616380315,15.,2.592423088017E-07));
#88 = CARTESIAN_POINT('',(4.996538348294,0.,-2.689539414907E-04));
#89 = CARTESIAN_POINT('',(6.994884279968,7.5,-1.882677590435E-04));
#90 = CARTESIAN_POINT('',(8.993230211643,15.,-1.075815765963E-04));
#91 = CARTESIAN_POINT('',(4.980993747893,0.,-1.473473318954E-03));
#92 = CARTESIAN_POINT('',(6.984003059688,7.5,-1.031431323268E-03));
#93 = CARTESIAN_POINT('',(8.987012371482,15.,-5.893893275815E-04));
#94 = CARTESIAN_POINT('',(4.955157444786,0.,-3.46846383803E-03));
#95 = CARTESIAN_POINT('',(6.965917647513,7.5,-2.427924686621E-03));
#96 = CARTESIAN_POINT('',(8.97667785024,15.,-1.387385535212E-03));
#97 = CARTESIAN_POINT('',(4.919145985588,0.,-6.234013766633E-03));
#98 = CARTESIAN_POINT('',(6.940709626074,7.5,-4.363809636643E-03));
#99 = CARTESIAN_POINT('',(8.96227326656,15.,-2.493605506653E-03));
#100 = CARTESIAN_POINT('',(4.873115591576,0.,-9.744455915674E-03));
#101 = CARTESIAN_POINT('',(6.908488350265,7.5,-6.821119140972E-03));
#102 = CARTESIAN_POINT('',(8.943861108955,15.,-3.897782366269E-03));
#103 = CARTESIAN_POINT('',(4.817266927655,0.,-1.396844412417E-02));
#104 = CARTESIAN_POINT('',(6.869394285521,7.5,-9.777910886916E-03));
#105 = CARTESIAN_POINT('',(8.921521643387,15.,-5.587377649666E-03));
#106 = CARTESIAN_POINT('',(4.751842365204,0.,-1.887041627267E-02));
#107 = CARTESIAN_POINT('',(6.823597091806,7.5,-1.320929139087E-02));
#108 = CARTESIAN_POINT('',(8.895351818407,15.,-7.54816650907E-03));
#109 = CARTESIAN_POINT('',(4.677124982959,0.,-2.441175183788E-02));
#110 = CARTESIAN_POINT('',(6.771294924234,7.5,-1.708822628651E-02));
#111 = CARTESIAN_POINT('',(8.865464865509,15.,-9.76470073515E-03));
#112 = CARTESIAN_POINT('',(4.593436862719,0.,-3.055193598345E-02));
#113 = CARTESIAN_POINT('',(6.712713240066,7.5,-2.138635518841E-02));
#114 = CARTESIAN_POINT('',(8.831989617413,15.,-1.222077439338E-02));
#115 = CARTESIAN_POINT('',(4.501137368006,0.,-3.724950725125E-02));
#116 = CARTESIAN_POINT('',(6.648103593767,7.5,-2.607465507588E-02));
#117 = CARTESIAN_POINT('',(8.795069819528,15.,-1.48998029005E-02));
#118 = CARTESIAN_POINT('',(4.400621252341,0.,-4.446272255816E-02));
#119 = CARTESIAN_POINT('',(6.577742312801,7.5,-3.112390579071E-02));
#120 = CARTESIAN_POINT('',(8.754863373261,15.,-1.778508902327E-02));
#121 = CARTESIAN_POINT('',(4.292316665057,0.,-5.214985507661E-02));
#122 = CARTESIAN_POINT('',(6.501929101703,7.5,-3.650489855363E-02));
#123 = CARTESIAN_POINT('',(8.711541538348,15.,-2.085994203064E-02));
#124 = CARTESIAN_POINT('',(4.176683057996,0.,-6.026907830698E-02));
#125 = CARTESIAN_POINT('',(6.42098557676,7.5,-4.218835481489E-02));
#126 = CARTESIAN_POINT('',(8.665288095524,15.,-2.410763132279E-02));
#127 = CARTESIAN_POINT('',(4.054209007999,0.,-6.877791923943E-02));
#128 = CARTESIAN_POINT('',(6.335253741762,7.5,-4.81445434676E-02));
#129 = CARTESIAN_POINT('',(8.616298475525,15.,-2.751116769577E-02));
#130 = CARTESIAN_POINT('',(3.925409961574,0.,-7.763229938467E-02));
#131 = CARTESIAN_POINT('',(6.245094409264,7.5,-5.434260956927E-02));
#132 = CARTESIAN_POINT('',(8.564778856955,15.,-3.105291975387E-02));
#133 = CARTESIAN_POINT('',(3.790825906241,0.,-8.678521757009E-02));
#134 = CARTESIAN_POINT('',(6.150885570531,7.5,-6.074965229906E-02));
#135 = CARTESIAN_POINT('',(8.510945234821,15.,-3.471408702804E-02));
#136 = CARTESIAN_POINT('',(3.651018969971,0.,-9.618516171729E-02));
#137 = CARTESIAN_POINT('',(6.053020715142,7.5,-6.73296132021E-02));
#138 = CARTESIAN_POINT('',(8.455022460314,15.,-3.847406468691E-02));
#139 = CARTESIAN_POINT('',(3.506570953079,0.,-0.105774364192));
#140 = CARTESIAN_POINT('',(5.951907103318,7.5,-7.404205493436E-02));
#141 = CARTESIAN_POINT('',(8.397243253557,15.,-4.230974567677E-02));
#142 = CARTESIAN_POINT('',(3.35808078613,0.,-0.115487039602));
#143 = CARTESIAN_POINT('',(5.847963986453,7.5,-8.084092772111E-02));
#144 = CARTESIAN_POINT('',(8.337847186777,15.,-4.619481584063E-02));
#145 = CARTESIAN_POINT('',(3.206161955143,0.,-0.125247744671));
#146 = CARTESIAN_POINT('',(5.741620804763,7.5,-8.767342126938E-02));
#147 = CARTESIAN_POINT('',(8.277079654382,15.,-5.009909786822E-02));
#148 = CARTESIAN_POINT('',(3.051439771337,0.,-0.134970045354));
#149 = CARTESIAN_POINT('',(5.633315276098,7.5,-9.447903174772E-02));
#150 = CARTESIAN_POINT('',(8.21519078086,15.,-5.398801814155E-02));
#151 = CARTESIAN_POINT('',(2.89454899377,0.,-0.144555506625));
#152 = CARTESIAN_POINT('',(5.523491731801,7.5,-0.101188854638));
#153 = CARTESIAN_POINT('',(8.152434469833,15.,-5.782220265003E-02));
#154 = CARTESIAN_POINT('',(2.736129979084,0.,-0.153893603947));
#155 = CARTESIAN_POINT('',(5.412598421521,7.5,-0.107725522763));
#156 = CARTESIAN_POINT('',(8.089066863959,15.,-6.155744157876E-02));
#157 = CARTESIAN_POINT('',(2.57683026461,0.,-0.162860879094));
#158 = CARTESIAN_POINT('',(5.30108862139,7.5,-0.114002615366));
#159 = CARTESIAN_POINT('',(8.025346978169,15.,-6.514435163777E-02));
#160 = CARTESIAN_POINT('',(2.417285919905,0.,-0.171326016354));
#161 = CARTESIAN_POINT('',(5.189407580096,7.5,-0.119928211448));
#162 = CARTESIAN_POINT('',(7.961529240287,15.,-6.853040654177E-02));
#163 = CARTESIAN_POINT('',(2.258178570371,0.,-0.179136162303));
#164 = CARTESIAN_POINT('',(5.078032435422,7.5,-0.125395313612));
#165 = CARTESIAN_POINT('',(7.897886300473,15.,-7.165446492102E-02));
#166 = CARTESIAN_POINT('',(2.100010299487,0.,-0.186176620102));
#167 = CARTESIAN_POINT('',(4.967314645803,7.5,-0.130323634071));
#168 = CARTESIAN_POINT('',(7.83461899212,15.,-7.447064804066E-02));
#169 = CARTESIAN_POINT('',(1.943931850179,0.,-0.192159902027));
#170 = CARTESIAN_POINT('',(4.858059731288,7.5,-0.134511931419));
#171 = CARTESIAN_POINT('',(7.772187612397,15.,-7.686396081079E-02));
#172 = CARTESIAN_POINT('',(1.791380450887,0.,-0.197686226177));
#173 = CARTESIAN_POINT('',(4.751273751783,7.5,-0.138380358324));
#174 = CARTESIAN_POINT('',(7.71116705268,15.,-7.907449047091E-02));
#175 = CARTESIAN_POINT('',(1.641427132896,0.,-0.202581926928));
#176 = CARTESIAN_POINT('',(4.646306429189,7.5,-0.14180734885));
#177 = CARTESIAN_POINT('',(7.651185725483,15.,-8.103277077121E-02));
#178 = CARTESIAN_POINT('',(1.495048895865,0.,-0.206653871283));
#179 = CARTESIAN_POINT('',(4.543841663268,7.5,-0.144657709898));
#180 = CARTESIAN_POINT('',(7.592634430671,15.,-8.266154851319E-02));
#181 = CARTESIAN_POINT('',(1.352693115329,0.,-0.209716443628));
#182 = CARTESIAN_POINT('',(4.444192616893,7.5,-0.14680151054));
#183 = CARTESIAN_POINT('',(7.535692118456,15.,-8.388657745116E-02));
#184 = CARTESIAN_POINT('',(1.214928993765,0.,-0.21159024534));
#185 = CARTESIAN_POINT('',(4.347757731798,7.5,-0.148113171738));
#186 = CARTESIAN_POINT('',(7.480586469831,15.,-8.463609813585E-02));
#187 = CARTESIAN_POINT('',(1.082272005679,0.,-0.212107973309));
#188 = CARTESIAN_POINT('',(4.254897840138,7.5,-0.148475581316));
#189 = CARTESIAN_POINT('',(7.427523674597,15.,-8.484318932347E-02));
#190 = CARTESIAN_POINT('',(0.955230016087,0.,-0.211117718274));
#191 = CARTESIAN_POINT('',(4.165968447424,7.5,-0.147782402792));
#192 = CARTESIAN_POINT('',(7.37670687876,15.,-8.44470873097E-02));
#193 = CARTESIAN_POINT('',(0.834289985992,0.,-0.208486077586));
#194 = CARTESIAN_POINT('',(4.081310426357,7.5,-0.14594025431));
#195 = CARTESIAN_POINT('',(7.328330866722,15.,-8.339443103453E-02));
#196 = CARTESIAN_POINT('',(0.719920489483,0.,-0.204100269617));
#197 = CARTESIAN_POINT('',(4.001251778801,7.5,-0.142870188732));
#198 = CARTESIAN_POINT('',(7.282583068118,15.,-8.16401078466E-02));
#199 = CARTESIAN_POINT('',(0.612569803594,0.,-0.197869355607));
#200 = CARTESIAN_POINT('',(3.926106298679,7.5,-0.138508548925));
#201 = CARTESIAN_POINT('',(7.239642793763,15.,-7.914774224284E-02));
#202 = CARTESIAN_POINT('',(0.512664928823,0.,-0.189724494111));
#203 = CARTESIAN_POINT('',(3.856172886339,7.5,-0.132807145878));
#204 = CARTESIAN_POINT('',(7.199680843854,15.,-7.588979764437E-02));
#205 = CARTESIAN_POINT('',(0.420610063919,0.,-0.179618269473));
#206 = CARTESIAN_POINT('',(3.791734480906,7.5,-0.125732788631));
#207 = CARTESIAN_POINT('',(7.162858897893,15.,-7.184730778906E-02));
#208 = CARTESIAN_POINT('',(0.336784917519,0.,-0.167523170766));
#209 = CARTESIAN_POINT('',(3.733056878426,7.5,-0.117266219536));
#210 = CARTESIAN_POINT('',(7.129328839333,15.,-6.70092683064E-02));
#211 = CARTESIAN_POINT('',(0.261542775793,0.,-0.153429349115));
#212 = CARTESIAN_POINT('',(3.680387379217,7.5,-0.107400544381));
#213 = CARTESIAN_POINT('',(7.099231982642,15.,-6.137173964604E-02));
#214 = CARTESIAN_POINT('',(0.195208386449,0.,-0.137341818033));
#215 = CARTESIAN_POINT('',(3.633953306677,7.5,-9.613927262307E-02));
#216 = CARTESIAN_POINT('',(7.072698226904,15.,-5.493672721318E-02));
#217 = CARTESIAN_POINT('',(0.138075760503,0.,-0.119277294838));
#218 = CARTESIAN_POINT('',(3.593960468515,7.5,-8.349410638654E-02));
#219 = CARTESIAN_POINT('',(7.049845176526,15.,-4.771091793517E-02));
#220 = CARTESIAN_POINT('',(9.04058138251E-02,0.,-9.926088349455E-02));
#221 = CARTESIAN_POINT('',(3.56059150584,7.5,-6.948261844619E-02));
#222 = CARTESIAN_POINT('',(7.030777197855,15.,-3.970435339782E-02));
#223 = CARTESIAN_POINT('',(5.242454552432E-02,0.,-7.732286083215E-02));
#224 = CARTESIAN_POINT('',(3.53400461803,7.5,-5.412600258251E-02));
#225 = CARTESIAN_POINT('',(7.015584690535,15.,-3.092914433286E-02));
#226 = CARTESIAN_POINT('',(2.431959182248E-02,0.,-5.349560961649E-02));
#227 = CARTESIAN_POINT('',(3.514331150438,7.5,-3.744692673154E-02));
#228 = CARTESIAN_POINT('',(7.004342709054,15.,-2.13982438466E-02));
#229 = CARTESIAN_POINT('',(6.243673070623E-03,0.,-2.781150940241E-02));
#230 = CARTESIAN_POINT('',(3.501678007312,7.5,-1.946805658168E-02));
#231 = CARTESIAN_POINT('',(6.997112341553,15.,-1.112460376096E-02));
#232 = CARTESIAN_POINT('',(9.436044293816E-04,-0.,-9.470255062013E-03));
#233 = CARTESIAN_POINT('',(3.497967959263,7.5,-6.629178543409E-03));
#234 = CARTESIAN_POINT('',(6.994992314097,15.,-3.788102024805E-03));
#235 = CARTESIAN_POINT('',(0.,0.,0.));
#236 = CARTESIAN_POINT('',(3.497307436162,7.5,0.));
#237 = CARTESIAN_POINT('',(6.994614872325,15.,0.));
#238 = DEFINITIONAL_REPRESENTATION('',(#239),#243);
#239 = LINE('',#240,#241);
#240 = CARTESIAN_POINT('',(0.,0.));
#241 = VECTOR('',#242,1.);
#242 = DIRECTION('',(1.,0.));
#243 = ( GEOMETRIC_REPRESENTATION_CONTEXT(2) 
PARAMETRIC_REPRESENTATION_CONTEXT() REPRESENTATION_CONTEXT('2D SPACE',''
  ) );
#244 = PCURVE('',#245,#250);
#245 = PLANE('',#246);
#246 = AXIS2_PLACEMENT_3D('',#247,#248,#249);
#247 = CARTESIAN_POINT('',(5.,0.,8.308230419112E-17));
#248 = DIRECTION('',(0.,1.,0.));
#249 = DIRECTION('',(-1.,0.,-1.661646083822E-17));
#250 = DEFINITIONAL_REPRESENTATION('',(#251),#304);
#251 = B_SPLINE_CURVE_WITH_KNOTS('',3,(#252,#253,#254,#255,#256,#257,
    #258,#259,#260,#261,#262,#263,#264,#265,#266,#267,#268,#269,#270,
    #271,#272,#273,#274,#275,#276,#277,#278,#279,#280,#281,#282,#283,
    #284,#285,#286,#287,#288,#289,#290,#291,#292,#293,#294,#295,#296,
    #297,#298,#299,#300,#301,#302,#303),.UNSPECIFIED.,.F.,.F.,(4,1,1,1,1
    ,1,1,1,1,1,1,1,1,1,1,1,1,1,1,1,1,1,1,1,1,1,1,1,1,1,1,1,1,1,1,1,1,1,1
    ,1,1,1,1,1,1,1,1,1,1,4),(0.,2.040816326531E-02,4.081632653061E-02,
    6.122448979592E-02,8.163265306122E-02,0.102040816327,0.122448979592,
    0.142857142857,0.163265306122,0.183673469388,0.204081632653,
    0.224489795918,0.244897959184,0.265306122449,0.285714285714,
    0.30612244898,0.326530612245,0.34693877551,0.367346938776,
    0.387755102041,0.408163265306,0.428571428571,0.448979591837,
    0.469387755102,0.489795918367,0.510204081633,0.530612244898,
    0.551020408163,0.571428571429,0.591836734694,0.612244897959,
    0.632653061224,0.65306122449,0.673469387755,0.69387755102,
    0.714285714286,0.734693877551,0.755102040816,0.775510204082,
    0.795918367347,0.816326530612,0.836734693878,0.857142857143,
    0.877551020408,0.897959183673,0.918367346939,0.938775510204,
    0.959183673469,0.979591836735,1.),.QUASI_UNIFORM_KNOTS.);
#252 = CARTESIAN_POINT('',(0.,0.));
#253 = CARTESIAN_POINT('',(-3.769975126744E-06,6.48105771921E-07));
#254 = CARTESIAN_POINT('',(3.46165170581E-03,-2.689539414907E-04));
#255 = CARTESIAN_POINT('',(1.900625210679E-02,-1.473473318954E-03));
#256 = CARTESIAN_POINT('',(4.484255521364E-02,-3.46846383803E-03));
#257 = CARTESIAN_POINT('',(8.085401441163E-02,-6.234013766634E-03));
#258 = CARTESIAN_POINT('',(0.126884408424,-9.744455915674E-03));
#259 = CARTESIAN_POINT('',(0.182733072345,-1.396844412417E-02));
#260 = CARTESIAN_POINT('',(0.248157634796,-1.887041627267E-02));
#261 = CARTESIAN_POINT('',(0.322875017041,-2.441175183788E-02));
#262 = CARTESIAN_POINT('',(0.406563137281,-3.055193598345E-02));
#263 = CARTESIAN_POINT('',(0.498862631994,-3.724950725125E-02));
#264 = CARTESIAN_POINT('',(0.599378747659,-4.446272255816E-02));
#265 = CARTESIAN_POINT('',(0.707683334943,-5.214985507661E-02));
#266 = CARTESIAN_POINT('',(0.823316942004,-6.026907830698E-02));
#267 = CARTESIAN_POINT('',(0.945790992001,-6.877791923943E-02));
#268 = CARTESIAN_POINT('',(1.074590038426,-7.763229938467E-02));
#269 = CARTESIAN_POINT('',(1.209174093759,-8.678521757009E-02));
#270 = CARTESIAN_POINT('',(1.348981030029,-9.618516171729E-02));
#271 = CARTESIAN_POINT('',(1.493429046921,-0.105774364192));
#272 = CARTESIAN_POINT('',(1.64191921387,-0.115487039602));
#273 = CARTESIAN_POINT('',(1.793838044857,-0.125247744671));
#274 = CARTESIAN_POINT('',(1.948560228663,-0.134970045354));
#275 = CARTESIAN_POINT('',(2.10545100623,-0.144555506625));
#276 = CARTESIAN_POINT('',(2.263870020916,-0.153893603947));
#277 = CARTESIAN_POINT('',(2.42316973539,-0.162860879094));
#278 = CARTESIAN_POINT('',(2.582714080095,-0.171326016354));
#279 = CARTESIAN_POINT('',(2.741821429629,-0.179136162303));
#280 = CARTESIAN_POINT('',(2.899989700513,-0.186176620102));
#281 = CARTESIAN_POINT('',(3.056068149821,-0.192159902027));
#282 = CARTESIAN_POINT('',(3.208619549113,-0.197686226177));
#283 = CARTESIAN_POINT('',(3.358572867104,-0.202581926928));
#284 = CARTESIAN_POINT('',(3.504951104135,-0.206653871283));
#285 = CARTESIAN_POINT('',(3.647306884671,-0.209716443628));
#286 = CARTESIAN_POINT('',(3.785071006235,-0.21159024534));
#287 = CARTESIAN_POINT('',(3.917727994321,-0.212107973309));
#288 = CARTESIAN_POINT('',(4.044769983913,-0.211117718274));
#289 = CARTESIAN_POINT('',(4.165710014008,-0.208486077586));
#290 = CARTESIAN_POINT('',(4.280079510517,-0.204100269617));
#291 = CARTESIAN_POINT('',(4.387430196406,-0.197869355607));
#292 = CARTESIAN_POINT('',(4.487335071177,-0.189724494111));
#293 = CARTESIAN_POINT('',(4.579389936081,-0.179618269473));
#294 = CARTESIAN_POINT('',(4.663215082481,-0.167523170766));
#295 = CARTESIAN_POINT('',(4.738457224207,-0.153429349115));
#296 = CARTESIAN_POINT('',(4.804791613551,-0.137341818033));
#297 = CARTESIAN_POINT('',(4.861924239497,-0.119277294838));
#298 = CARTESIAN_POINT('',(4.909594186175,-9.926088349455E-02));
#299 = CARTESIAN_POINT('',(4.947575454476,-7.732286083215E-02));
#300 = CARTESIAN_POINT('',(4.975680408178,-5.349560961649E-02));
#301 = CARTESIAN_POINT('',(4.993756326929,-2.781150940241E-02));
#302 = CARTESIAN_POINT('',(4.999056395571,-9.470255062013E-03));
#303 = CARTESIAN_POINT('',(5.,0.));
#304 = ( GEOMETRIC_REPRESENTATION_CONTEXT(2) 
PARAMETRIC_REPRESENTATION_CONTEXT() REPRESENTATION_CONTEXT('2D SPACE',''
  ) );
#305 = ORIENTED_EDGE('',*,*,#306,.T.);
#306 = EDGE_CURVE('',#24,#307,#309,.T.);
#307 = VERTEX_POINT('',#308);
#308 = CARTESIAN_POINT('',(6.994614872325,15.,0.));
#309 = SURFACE_CURVE('',#310,(#314,#321),.PCURVE_S1.);
#310 = B_SPLINE_CURVE_WITH_KNOTS('',2,(#311,#312,#313),.UNSPECIFIED.,.F.
  ,.F.,(3,3),(0.,1.),.PIECEWISE_BEZIER_KNOTS.);
#311 = CARTESIAN_POINT('',(0.,0.,0.));
#312 = CARTESIAN_POINT('',(3.497307436162,7.5,0.));
#313 = CARTESIAN_POINT('',(6.994614872325,15.,0.));
#314 = PCURVE('',#81,#315);
#315 = DEFINITIONAL_REPRESENTATION('',(#316),#320);
#316 = LINE('',#317,#318);
#317 = CARTESIAN_POINT('',(1.,0.));
#318 = VECTOR('',#319,1.);
#319 = DIRECTION('',(0.,1.));
#320 = ( GEOMETRIC_REPRESENTATION_CONTEXT(2) 
PARAMETRIC_REPRESENTATION_CONTEXT() REPRESENTATION_CONTEXT('2D SPACE',''
  ) );
#321 = PCURVE('',#322,#479);
#322 = B_SPLINE_SURFACE_WITH_KNOTS('',3,2,(
    (#323,#324,#325)
    ,(#326,#327,#328)
    ,(#329,#330,#331)
    ,(#332,#333,#334)
    ,(#335,#336,#337)
    ,(#338,#339,#340)
    ,(#341,#342,#343)
    ,(#344,#345,#346)
    ,(#347,#348,#349)
    ,(#350,#351,#352)
    ,(#353,#354,#355)
    ,(#356,#357,#358)
    ,(#359,#360,#361)
    ,(#362,#363,#364)
    ,(#365,#366,#367)
    ,(#368,#369,#370)
    ,(#371,#372,#373)
    ,(#374,#375,#376)
    ,(#377,#378,#379)
    ,(#380,#381,#382)
    ,(#383,#384,#385)
    ,(#386,#387,#388)
    ,(#389,#390,#391)
    ,(#392,#393,#394)
    ,(#395,#396,#397)
    ,(#398,#399,#400)
    ,(#401,#402,#403)
    ,(#404,#405,#406)
    ,(#407,#408,#409)
    ,(#410,#411,#412)
    ,(#413,#414,#415)
    ,(#416,#417,#418)
    ,(#419,#420,#421)
    ,(#422,#423,#424)
    ,(#425,#426,#427)
    ,(#428,#429,#430)
    ,(#431,#432,#433)
    ,(#434,#435,#436)
    ,(#437,#438,#439)
    ,(#440,#441,#442)
    ,(#443,#444,#445)
    ,(#446,#447,#448)
    ,(#449,#450,#451)
    ,(#452,#453,#454)
    ,(#455,#456,#457)
    ,(#458,#459,#460)
    ,(#461,#462,#463)
    ,(#464,#465,#466)
    ,(#467,#468,#469)
    ,(#470,#471,#472)
    ,(#473,#474,#475)
    ,(#476,#477,#478
    )),.UNSPECIFIED.,.F.,.F.,.F.,(4,1,1,1,1,1,1,1,1,1,1,1,1,1,1,1,1,1,1,
    1,1,1,1,1,1,1,1,1,1,1,1,1,1,1,1,1,1,1,1,1,1,1,1,1,1,1,1,1,1,4),(3,3)
  ,(1.,1.020408163265,1.040816326531,1.061224489796,1.081632653061,
    1.102040816327,1.122448979592,1.142857142857,1.163265306122,
    1.183673469388,1.204081632653,1.224489795918,1.244897959184,
    1.265306122449,1.285714285714,1.30612244898,1.326530612245,
    1.34693877551,1.367346938776,1.387755102041,1.408163265306,
    1.428571428571,1.448979591837,1.469387755102,1.489795918367,
    1.510204081633,1.530612244898,1.551020408163,1.571428571429,
    1.591836734694,1.612244897959,1.632653061224,1.65306122449,
    1.673469387755,1.69387755102,1.714285714286,1.734693877551,
    1.755102040816,1.775510204082,1.795918367347,1.816326530612,
    1.836734693878,1.857142857143,1.877551020408,1.897959183673,
    1.918367346939,1.938775510204,1.959183673469,1.979591836735,2.),(0.,
    1.),.UNSPECIFIED.);
#323 = CARTESIAN_POINT('',(0.,0.,0.));
#324 = CARTESIAN_POINT('',(3.497307436162,7.5,0.));
#325 = CARTESIAN_POINT('',(6.994614872325,15.,0.));
#326 = CARTESIAN_POINT('',(-9.506208402063E-04,0.,9.466958283402E-03));
#327 = CARTESIAN_POINT('',(3.496642001574,7.5,6.626870798381E-03));
#328 = CARTESIAN_POINT('',(6.994234623989,15.,3.786783313361E-03));
#329 = CARTESIAN_POINT('',(6.129677603472E-04,0.,2.849925855826E-02));
#330 = CARTESIAN_POINT('',(3.497736513595,7.5,1.994948099078E-02));
#331 = CARTESIAN_POINT('',(6.994860059429,15.,1.139970342331E-02));
#332 = CARTESIAN_POINT('',(1.333090737527E-02,0.,5.724933934236E-02));
#333 = CARTESIAN_POINT('',(3.506639071325,7.5,4.007453753965E-02));
#334 = CARTESIAN_POINT('',(6.999947235275,15.,2.289973573695E-02));
#335 = CARTESIAN_POINT('',(3.641640215633E-02,0.,8.612376904114E-02));
#336 = CARTESIAN_POINT('',(3.522798917672,7.5,6.02866383288E-02));
#337 = CARTESIAN_POINT('',(7.009181433188,15.,3.444950761646E-02));
#338 = CARTESIAN_POINT('',(6.980518652262E-02,0.,0.114988428664));
#339 = CARTESIAN_POINT('',(3.546171066728,7.5,8.04919000649E-02));
#340 = CARTESIAN_POINT('',(7.022536946934,15.,4.599537146566E-02));
#341 = CARTESIAN_POINT('',(0.113393399255,0.,0.143676068114));
#342 = CARTESIAN_POINT('',(3.576682815641,7.5,0.10057324768));
#343 = CARTESIAN_POINT('',(7.039972232027,15.,5.747042724566E-02));
#344 = CARTESIAN_POINT('',(0.167031563853,0.,0.171985719515));
#345 = CARTESIAN_POINT('',(3.61422953086,7.5,0.120390003661));
#346 = CARTESIAN_POINT('',(7.061427497866,15.,6.879428780609E-02));
#347 = CARTESIAN_POINT('',(0.230525542862,0.,0.199690022203));
#348 = CARTESIAN_POINT('',(3.658675316166,7.5,0.139783015542));
#349 = CARTESIAN_POINT('',(7.08682508947,15.,7.987600888106E-02));
#350 = CARTESIAN_POINT('',(0.303635820489,0.,0.226541538618));
#351 = CARTESIAN_POINT('',(3.709852510504,7.5,0.158579077032));
#352 = CARTESIAN_POINT('',(7.11606920052,15.,9.061661544712E-02));
#353 = CARTESIAN_POINT('',(0.386077541693,0.,0.252280120279));
#354 = CARTESIAN_POINT('',(3.767561715347,7.5,0.176596084195));
#355 = CARTESIAN_POINT('',(7.149045889002,15.,0.100912048112));
#356 = CARTESIAN_POINT('',(0.477520763965,0.,0.276640417524));
#357 = CARTESIAN_POINT('',(3.831571970938,7.5,0.193648292267));
#358 = CARTESIAN_POINT('',(7.185623177911,15.,0.11065616701));
#359 = CARTESIAN_POINT('',(0.577591163601,0.,0.299359415082));
#360 = CARTESIAN_POINT('',(3.901621250683,7.5,0.209551590557));
#361 = CARTESIAN_POINT('',(7.225651337765,15.,0.119743766033));
#362 = CARTESIAN_POINT('',(0.685871197875,0.,0.320183675488));
#363 = CARTESIAN_POINT('',(3.977417274675,7.5,0.224128572841));
#364 = CARTESIAN_POINT('',(7.268963351475,15.,0.128073470195));
#365 = CARTESIAN_POINT('',(0.80190179445,0.,0.338876053226));
#366 = CARTESIAN_POINT('',(4.058638692278,7.5,0.237213237258));
#367 = CARTESIAN_POINT('',(7.315375590105,15.,0.13555042129));
#368 = CARTESIAN_POINT('',(0.925184466946,0.,0.355221664328));
#369 = CARTESIAN_POINT('',(4.144936563024,7.5,0.248655165029));
#370 = CARTESIAN_POINT('',(7.364688659103,15.,0.142088665731));
#371 = CARTESIAN_POINT('',(1.055184225984,0.,0.369032940433));
#372 = CARTESIAN_POINT('',(4.235936394351,7.5,0.258323058303));
#373 = CARTESIAN_POINT('',(7.416688562719,15.,0.147613176173));
#374 = CARTESIAN_POINT('',(1.191331792885,0.,0.380153664401));
#375 = CARTESIAN_POINT('',(4.331239691182,7.5,0.266107565081));
#376 = CARTESIAN_POINT('',(7.471147589479,15.,0.152061465761));
#377 = CARTESIAN_POINT('',(1.333030457092,0.,0.38846187359));
#378 = CARTESIAN_POINT('',(4.430428756127,7.5,0.271923311513));
#379 = CARTESIAN_POINT('',(7.527827055162,15.,0.155384749436));
#380 = CARTESIAN_POINT('',(1.479647320577,0.,0.393871818917));
#381 = CARTESIAN_POINT('',(4.533060560567,7.5,0.275710273242));
#382 = CARTESIAN_POINT('',(7.586473800556,15.,0.157548727567));
#383 = CARTESIAN_POINT('',(1.630564135242,0.,0.396334298393));
#384 = CARTESIAN_POINT('',(4.638702330832,7.5,0.277434008875));
#385 = CARTESIAN_POINT('',(7.646840526422,15.,0.158533719357));
#386 = CARTESIAN_POINT('',(1.785006627481,0.,0.395838169472));
#387 = CARTESIAN_POINT('',(4.746812075399,7.5,0.27708671863));
#388 = CARTESIAN_POINT('',(7.708617523318,15.,0.158335267789));
#389 = CARTESIAN_POINT('',(1.942700969279,0.,0.392403045693));
#390 = CARTESIAN_POINT('',(4.857198114658,7.5,0.274682131985));
#391 = CARTESIAN_POINT('',(7.771695260037,15.,0.156961218277));
#392 = CARTESIAN_POINT('',(2.101443325622,0.,0.38610111627));
#393 = CARTESIAN_POINT('',(4.968317764098,7.5,0.270270781389));
#394 = CARTESIAN_POINT('',(7.835192202574,15.,0.154440446508));
#395 = CARTESIAN_POINT('',(2.261377258732,0.,0.377834893562));
#396 = CARTESIAN_POINT('',(5.080271517275,7.5,0.264484425494));
#397 = CARTESIAN_POINT('',(7.899165775818,15.,0.151133957425));
#398 = CARTESIAN_POINT('',(2.422346361344,0.,0.367597252529));
#399 = CARTESIAN_POINT('',(5.192949889103,7.5,0.25731807677));
#400 = CARTESIAN_POINT('',(7.963553416863,15.,0.147038901012));
#401 = CARTESIAN_POINT('',(2.58353745414,0.,0.355571642639));
#402 = CARTESIAN_POINT('',(5.305783654061,7.5,0.248900149847));
#403 = CARTESIAN_POINT('',(8.028029853981,15.,0.142228657056));
#404 = CARTESIAN_POINT('',(2.744314191813,0.,0.341906034717));
#405 = CARTESIAN_POINT('',(5.418327370432,7.5,0.239334224302));
#406 = CARTESIAN_POINT('',(8.09234054905,15.,0.136762413887));
#407 = CARTESIAN_POINT('',(2.903997381121,0.,0.326770326779));
#408 = CARTESIAN_POINT('',(5.530105602947,7.5,0.228739228745));
#409 = CARTESIAN_POINT('',(8.156213824773,15.,0.130708130711));
#410 = CARTESIAN_POINT('',(3.061927409205,0.,0.310338263546));
#411 = CARTESIAN_POINT('',(5.640656622606,7.5,0.217236784482));
#412 = CARTESIAN_POINT('',(8.219385836007,15.,0.124135305418));
#413 = CARTESIAN_POINT('',(3.217450966489,0.,0.292790102055));
#414 = CARTESIAN_POINT('',(5.749523112705,7.5,0.204953071438));
#415 = CARTESIAN_POINT('',(8.28159525892,15.,0.117116040822));
#416 = CARTESIAN_POINT('',(3.369927945733,0.,0.274310240033));
#417 = CARTESIAN_POINT('',(5.856256998176,7.5,0.192017168023));
#418 = CARTESIAN_POINT('',(8.342586050618,15.,0.109724096013));
#419 = CARTESIAN_POINT('',(3.518732830478,0.,0.255086669594));
#420 = CARTESIAN_POINT('',(5.960420417497,7.5,0.178560668716));
#421 = CARTESIAN_POINT('',(8.402108004516,15.,0.102034667838));
#422 = CARTESIAN_POINT('',(3.663257457608,0.,0.235310329579));
#423 = CARTESIAN_POINT('',(6.061587656488,7.5,0.164717230705));
#424 = CARTESIAN_POINT('',(8.459917855368,15.,9.412413183155E-02));
#425 = CARTESIAN_POINT('',(3.802913307109,0.,0.215174752359));
#426 = CARTESIAN_POINT('',(6.159346751139,7.5,0.150622326651));
#427 = CARTESIAN_POINT('',(8.515780195168,15.,8.606990094361E-02));
#428 = CARTESIAN_POINT('',(3.937133806763,0.,0.194875757198));
#429 = CARTESIAN_POINT('',(6.253301100897,7.5,0.136413030038));
#430 = CARTESIAN_POINT('',(8.56946839503,15.,7.795030287901E-02));
#431 = CARTESIAN_POINT('',(4.065376508967,0.,0.174611105834));
#432 = CARTESIAN_POINT('',(6.34307099244,7.5,0.122227774084));
#433 = CARTESIAN_POINT('',(8.620765475912,15.,6.984444233358E-02));
#434 = CARTESIAN_POINT('',(4.187125161561,0.,0.154579995978));
#435 = CARTESIAN_POINT('',(6.428295049255,7.5,0.108205997185));
#436 = CARTESIAN_POINT('',(8.669464936949,15.,6.183199839133E-02));
#437 = CARTESIAN_POINT('',(4.301891647585,0.,0.134982295171));
#438 = CARTESIAN_POINT('',(6.508631589472,7.5,9.448760661984E-02));
#439 = CARTESIAN_POINT('',(8.715371531359,15.,5.399291806848E-02));
#440 = CARTESIAN_POINT('',(4.409217780464,0.,0.116017437154));
#441 = CARTESIAN_POINT('',(6.583759882487,7.5,8.121220600805E-02));
#442 = CARTESIAN_POINT('',(8.758301984511,15.,4.640697486174E-02));
#443 = CARTESIAN_POINT('',(4.508676939205,0.,9.788293305162E-02));
#444 = CARTESIAN_POINT('',(6.653381293606,7.5,6.851805313613E-02));
#445 = CARTESIAN_POINT('',(8.798085648007,15.,3.915317322065E-02));
#446 = CARTESIAN_POINT('',(4.599875531669,0.,8.077248313356E-02));
#447 = CARTESIAN_POINT('',(6.717220308331,7.5,5.654073819349E-02));
#448 = CARTESIAN_POINT('',(8.834565084993,15.,3.230899325342E-02));
#449 = CARTESIAN_POINT('',(4.682454279033,0.,6.487370950546E-02));
#450 = CARTESIAN_POINT('',(6.775025431485,7.5,4.541159665382E-02));
#451 = CARTESIAN_POINT('',(8.867596583938,15.,2.594948380219E-02));
#452 = CARTESIAN_POINT('',(4.756089316141,0.,5.036556694836E-02));
#453 = CARTESIAN_POINT('',(6.826569957461,7.5,3.525589686385E-02));
#454 = CARTESIAN_POINT('',(8.897050598781,15.,2.014622677934E-02));
#455 = CARTESIAN_POINT('',(4.820493122043,0.,3.741551034522E-02));
#456 = CARTESIAN_POINT('',(6.871652621593,7.5,2.619085724165E-02));
#457 = CARTESIAN_POINT('',(8.922812121142,15.,1.496620413809E-02));
#458 = CARTESIAN_POINT('',(4.875415248667,0.,2.617655869972E-02));
#459 = CARTESIAN_POINT('',(6.910098110229,7.5,1.832359108981E-02));
#460 = CARTESIAN_POINT('',(8.944780971792,15.,1.047062347989E-02));
#461 = CARTESIAN_POINT('',(4.920643014064,0.,1.678427829418E-02));
#462 = CARTESIAN_POINT('',(6.941757546007,7.5,1.174899480593E-02));
#463 = CARTESIAN_POINT('',(8.962872077951,15.,6.713711317672E-03));
#464 = CARTESIAN_POINT('',(4.956001607533,0.,9.35422187937E-03));
#465 = CARTESIAN_POINT('',(6.966508561436,7.5,6.547955315559E-03));
#466 = CARTESIAN_POINT('',(8.977015515338,15.,3.741688751748E-03));
#467 = CARTESIAN_POINT('',(4.981355752909,0.,3.978475401515E-03));
#468 = CARTESIAN_POINT('',(6.984256463199,7.5,2.784932781061E-03));
#469 = CARTESIAN_POINT('',(8.987157173489,15.,1.591390160606E-03));
#470 = CARTESIAN_POINT('',(4.996605010875,0.,7.269900292265E-04));
#471 = CARTESIAN_POINT('',(6.994930943775,7.5,5.088930204585E-04));
#472 = CARTESIAN_POINT('',(8.993256876675,15.,2.907960116906E-04));
#473 = CARTESIAN_POINT('',(5.000003246436,-0.,-2.26926095089E-06));
#474 = CARTESIAN_POINT('',(6.997309708667,7.5,-1.588482665623E-06));
#475 = CARTESIAN_POINT('',(8.994616170899,15.,-9.077043803561E-07));
#476 = CARTESIAN_POINT('',(5.,0.,8.308230419112E-17));
#477 = CARTESIAN_POINT('',(6.997307436162,7.5,5.815761293379E-17));
#478 = CARTESIAN_POINT('',(8.994614872325,15.,3.323292167645E-17));
#479 = DEFINITIONAL_REPRESENTATION('',(#480),#484);
#480 = LINE('',#481,#482);
#481 = CARTESIAN_POINT('',(1.,0.));
#482 = VECTOR('',#483,1.);
#483 = DIRECTION('',(0.,1.));
#484 = ( GEOMETRIC_REPRESENTATION_CONTEXT(2) 
PARAMETRIC_REPRESENTATION_CONTEXT() REPRESENTATION_CONTEXT('2D SPACE',''
  ) );
#485 = ORIENTED_EDGE('',*,*,#486,.F.);
#486 = EDGE_CURVE('',#487,#307,#489,.T.);
#487 = VERTEX_POINT('',#488);
#488 = CARTESIAN_POINT('',(8.994614872325,15.,3.323292167645E-17));
#489 = SURFACE_CURVE('',#490,(#543,#550),.PCURVE_S1.);
#490 = B_SPLINE_CURVE_WITH_KNOTS('',3,(#491,#492,#493,#494,#495,#496,
    #497,#498,#499,#500,#501,#502,#503,#504,#505,#506,#507,#508,#509,
    #510,#511,#512,#513,#514,#515,#516,#517,#518,#519,#520,#521,#522,
    #523,#524,#525,#526,#527,#528,#529,#530,#531,#532,#533,#534,#535,
    #536,#537,#538,#539,#540,#541,#542),.UNSPECIFIED.,.F.,.F.,(4,1,1,1,1
    ,1,1,1,1,1,1,1,1,1,1,1,1,1,1,1,1,1,1,1,1,1,1,1,1,1,1,1,1,1,1,1,1,1,1
    ,1,1,1,1,1,1,1,1,1,1,4),(0.,2.040816326531E-02,4.081632653061E-02,
    6.122448979592E-02,8.163265306122E-02,0.102040816327,0.122448979592,
    0.142857142857,0.163265306122,0.183673469388,0.204081632653,
    0.224489795918,0.244897959184,0.265306122449,0.285714285714,
    0.30612244898,0.326530612245,0.34693877551,0.367346938776,
    0.387755102041,0.408163265306,0.428571428571,0.448979591837,
    0.469387755102,0.489795918367,0.510204081633,0.530612244898,
    0.551020408163,0.571428571429,0.591836734694,0.612244897959,
    0.632653061224,0.65306122449,0.673469387755,0.69387755102,
    0.714285714286,0.734693877551,0.755102040816,0.775510204082,
    0.795918367347,0.816326530612,0.836734693878,0.857142857143,
    0.877551020408,0.897959183673,0.918367346939,0.938775510204,
    0.959183673469,0.979591836735,1.),.QUASI_UNIFORM_KNOTS.);
#491 = CARTESIAN_POINT('',(8.994614872325,15.,3.323292167645E-17));
#492 = CARTESIAN_POINT('',(8.994616380315,15.,2.592423088017E-07));
#493 = CARTESIAN_POINT('',(8.993230211643,15.,-1.075815765963E-04));
#494 = CARTESIAN_POINT('',(8.987012371482,15.,-5.893893275815E-04));
#495 = CARTESIAN_POINT('',(8.97667785024,15.,-1.387385535212E-03));
#496 = CARTESIAN_POINT('',(8.96227326656,15.,-2.493605506653E-03));
#497 = CARTESIAN_POINT('',(8.943861108955,15.,-3.897782366269E-03));
#498 = CARTESIAN_POINT('',(8.921521643387,15.,-5.587377649666E-03));
#499 = CARTESIAN_POINT('',(8.895351818407,15.,-7.54816650907E-03));
#500 = CARTESIAN_POINT('',(8.865464865509,15.,-9.76470073515E-03));
#501 = CARTESIAN_POINT('',(8.831989617413,15.,-1.222077439338E-02));
#502 = CARTESIAN_POINT('',(8.795069819528,15.,-1.48998029005E-02));
#503 = CARTESIAN_POINT('',(8.754863373261,15.,-1.778508902327E-02));
#504 = CARTESIAN_POINT('',(8.711541538348,15.,-2.085994203064E-02));
#505 = CARTESIAN_POINT('',(8.665288095524,15.,-2.410763132279E-02));
#506 = CARTESIAN_POINT('',(8.616298475525,15.,-2.751116769577E-02));
#507 = CARTESIAN_POINT('',(8.564778856955,15.,-3.105291975387E-02));
#508 = CARTESIAN_POINT('',(8.510945234821,15.,-3.471408702804E-02));
#509 = CARTESIAN_POINT('',(8.455022460314,15.,-3.847406468691E-02));
#510 = CARTESIAN_POINT('',(8.397243253557,15.,-4.230974567677E-02));
#511 = CARTESIAN_POINT('',(8.337847186777,15.,-4.619481584063E-02));
#512 = CARTESIAN_POINT('',(8.277079654382,15.,-5.009909786822E-02));
#513 = CARTESIAN_POINT('',(8.21519078086,15.,-5.398801814155E-02));
#514 = CARTESIAN_POINT('',(8.152434469833,15.,-5.782220265003E-02));
#515 = CARTESIAN_POINT('',(8.089066863959,15.,-6.155744157876E-02));
#516 = CARTESIAN_POINT('',(8.025346978169,15.,-6.514435163777E-02));
#517 = CARTESIAN_POINT('',(7.961529240287,15.,-6.853040654177E-02));
#518 = CARTESIAN_POINT('',(7.897886300473,15.,-7.165446492102E-02));
#519 = CARTESIAN_POINT('',(7.83461899212,15.,-7.447064804066E-02));
#520 = CARTESIAN_POINT('',(7.772187612397,15.,-7.686396081079E-02));
#521 = CARTESIAN_POINT('',(7.71116705268,15.,-7.907449047091E-02));
#522 = CARTESIAN_POINT('',(7.651185725483,15.,-8.103277077121E-02));
#523 = CARTESIAN_POINT('',(7.592634430671,15.,-8.266154851319E-02));
#524 = CARTESIAN_POINT('',(7.535692118456,15.,-8.388657745116E-02));
#525 = CARTESIAN_POINT('',(7.480586469831,15.,-8.463609813585E-02));
#526 = CARTESIAN_POINT('',(7.427523674597,15.,-8.484318932347E-02));
#527 = CARTESIAN_POINT('',(7.37670687876,15.,-8.44470873097E-02));
#528 = CARTESIAN_POINT('',(7.328330866722,15.,-8.339443103453E-02));
#529 = CARTESIAN_POINT('',(7.282583068118,15.,-8.16401078466E-02));
#530 = CARTESIAN_POINT('',(7.239642793763,15.,-7.914774224284E-02));
#531 = CARTESIAN_POINT('',(7.199680843854,15.,-7.588979764437E-02));
#532 = CARTESIAN_POINT('',(7.162858897893,15.,-7.184730778906E-02));
#533 = CARTESIAN_POINT('',(7.129328839333,15.,-6.70092683064E-02));
#534 = CARTESIAN_POINT('',(7.099231982642,15.,-6.137173964604E-02));
#535 = CARTESIAN_POINT('',(7.072698226904,15.,-5.493672721318E-02));
#536 = CARTESIAN_POINT('',(7.049845176526,15.,-4.771091793517E-02));
#537 = CARTESIAN_POINT('',(7.030777197855,15.,-3.970435339782E-02));
#538 = CARTESIAN_POINT('',(7.015584690535,15.,-3.092914433286E-02));
#539 = CARTESIAN_POINT('',(7.004342709054,15.,-2.13982438466E-02));
#540 = CARTESIAN_POINT('',(6.997112341553,15.,-1.112460376096E-02));
#541 = CARTESIAN_POINT('',(6.994992314097,15.,-3.788102024805E-03));
#542 = CARTESIAN_POINT('',(6.994614872325,15.,0.));
#543 = PCURVE('',#81,#544);
#544 = DEFINITIONAL_REPRESENTATION('',(#545),#549);
#545 = LINE('',#546,#547);
#546 = CARTESIAN_POINT('',(0.,1.));
#547 = VECTOR('',#548,1.);
#548 = DIRECTION('',(1.,0.));
#549 = ( GEOMETRIC_REPRESENTATION_CONTEXT(2) 
PARAMETRIC_REPRESENTATION_CONTEXT() REPRESENTATION_CONTEXT('2D SPACE',''
  ) );
#550 = PCURVE('',#551,#556);
#551 = PLANE('',#552);
#552 = AXIS2_PLACEMENT_3D('',#553,#554,#555);
#553 = CARTESIAN_POINT('',(8.994614872325,15.,3.323292167645E-17));
#554 = DIRECTION('',(0.,1.,0.));
#555 = DIRECTION('',(-1.,0.,-1.661646083822E-17));
#556 = DEFINITIONAL_REPRESENTATION('',(#557),#610);
#557 = B_SPLINE_CURVE_WITH_KNOTS('',3,(#558,#559,#560,#561,#562,#563,
    #564,#565,#566,#567,#568,#569,#570,#571,#572,#573,#574,#575,#576,
    #577,#578,#579,#580,#581,#582,#583,#584,#585,#586,#587,#588,#589,
    #590,#591,#592,#593,#594,#595,#596,#597,#598,#599,#600,#601,#602,
    #603,#604,#605,#606,#607,#608,#609),.UNSPECIFIED.,.F.,.F.,(4,1,1,1,1
    ,1,1,1,1,1,1,1,1,1,1,1,1,1,1,1,1,1,1,1,1,1,1,1,1,1,1,1,1,1,1,1,1,1,1
    ,1,1,1,1,1,1,1,1,1,1,4),(0.,2.040816326531E-02,4.081632653061E-02,
    6.122448979592E-02,8.163265306122E-02,0.102040816327,0.122448979592,
    0.142857142857,0.163265306122,0.183673469388,0.204081632653,
    0.224489795918,0.244897959184,0.265306122449,0.285714285714,
    0.30612244898,0.326530612245,0.34693877551,0.367346938776,
    0.387755102041,0.408163265306,0.428571428571,0.448979591837,
    0.469387755102,0.489795918367,0.510204081633,0.530612244898,
    0.551020408163,0.571428571429,0.591836734694,0.612244897959,
    0.632653061224,0.65306122449,0.673469387755,0.69387755102,
    0.714285714286,0.734693877551,0.755102040816,0.775510204082,
    0.795918367347,0.816326530612,0.836734693878,0.857142857143,
    0.877551020408,0.897959183673,0.918367346939,0.938775510204,
    0.959183673469,0.979591836735,1.),.QUASI_UNIFORM_KNOTS.);
#558 = CARTESIAN_POINT('',(0.,0.));
#559 = CARTESIAN_POINT('',(-1.507990049276E-06,2.592423087684E-07));
#560 = CARTESIAN_POINT('',(1.384660682326E-03,-1.075815765963E-04));
#561 = CARTESIAN_POINT('',(7.602500842713E-03,-5.893893275816E-04));
#562 = CARTESIAN_POINT('',(1.793702208546E-02,-1.387385535212E-03));
#563 = CARTESIAN_POINT('',(3.234160576466E-02,-2.493605506653E-03));
#564 = CARTESIAN_POINT('',(5.075376336974E-02,-3.897782366269E-03));
#565 = CARTESIAN_POINT('',(7.309322893791E-02,-5.587377649666E-03));
#566 = CARTESIAN_POINT('',(9.926305391822E-02,-7.54816650907E-03));
#567 = CARTESIAN_POINT('',(0.129150006816,-9.76470073515E-03));
#568 = CARTESIAN_POINT('',(0.162625254912,-1.222077439338E-02));
#569 = CARTESIAN_POINT('',(0.199545052797,-1.48998029005E-02));
#570 = CARTESIAN_POINT('',(0.239751499064,-1.778508902327E-02));
#571 = CARTESIAN_POINT('',(0.283073333977,-2.085994203064E-02));
#572 = CARTESIAN_POINT('',(0.329326776801,-2.410763132279E-02));
#573 = CARTESIAN_POINT('',(0.3783163968,-2.751116769577E-02));
#574 = CARTESIAN_POINT('',(0.42983601537,-3.105291975387E-02));
#575 = CARTESIAN_POINT('',(0.483669637504,-3.471408702804E-02));
#576 = CARTESIAN_POINT('',(0.539592412011,-3.847406468691E-02));
#577 = CARTESIAN_POINT('',(0.597371618768,-4.230974567677E-02));
#578 = CARTESIAN_POINT('',(0.656767685548,-4.619481584063E-02));
#579 = CARTESIAN_POINT('',(0.717535217943,-5.009909786822E-02));
#580 = CARTESIAN_POINT('',(0.779424091465,-5.398801814155E-02));
#581 = CARTESIAN_POINT('',(0.842180402492,-5.782220265003E-02));
#582 = CARTESIAN_POINT('',(0.905548008366,-6.155744157876E-02));
#583 = CARTESIAN_POINT('',(0.969267894156,-6.514435163777E-02));
#584 = CARTESIAN_POINT('',(1.033085632038,-6.853040654177E-02));
#585 = CARTESIAN_POINT('',(1.096728571852,-7.165446492102E-02));
#586 = CARTESIAN_POINT('',(1.159995880205,-7.447064804066E-02));
#587 = CARTESIAN_POINT('',(1.222427259928,-7.686396081079E-02));
#588 = CARTESIAN_POINT('',(1.283447819645,-7.907449047091E-02));
#589 = CARTESIAN_POINT('',(1.343429146842,-8.103277077121E-02));
#590 = CARTESIAN_POINT('',(1.401980441654,-8.266154851319E-02));
#591 = CARTESIAN_POINT('',(1.458922753869,-8.388657745116E-02));
#592 = CARTESIAN_POINT('',(1.514028402494,-8.463609813585E-02));
#593 = CARTESIAN_POINT('',(1.567091197728,-8.484318932347E-02));
#594 = CARTESIAN_POINT('',(1.617907993565,-8.44470873097E-02));
#595 = CARTESIAN_POINT('',(1.666284005603,-8.339443103453E-02));
#596 = CARTESIAN_POINT('',(1.712031804207,-8.16401078466E-02));
#597 = CARTESIAN_POINT('',(1.754972078562,-7.914774224284E-02));
#598 = CARTESIAN_POINT('',(1.794934028471,-7.588979764437E-02));
#599 = CARTESIAN_POINT('',(1.831755974432,-7.184730778906E-02));
#600 = CARTESIAN_POINT('',(1.865286032992,-6.70092683064E-02));
#601 = CARTESIAN_POINT('',(1.895382889683,-6.137173964604E-02));
#602 = CARTESIAN_POINT('',(1.921916645421,-5.493672721318E-02));
#603 = CARTESIAN_POINT('',(1.944769695799,-4.771091793517E-02));
#604 = CARTESIAN_POINT('',(1.96383767447,-3.970435339782E-02));
#605 = CARTESIAN_POINT('',(1.97903018179,-3.092914433286E-02));
#606 = CARTESIAN_POINT('',(1.990272163271,-2.13982438466E-02));
#607 = CARTESIAN_POINT('',(1.997502530772,-1.112460376096E-02));
#608 = CARTESIAN_POINT('',(1.999622558228,-3.788102024805E-03));
#609 = CARTESIAN_POINT('',(2.,0.));
#610 = ( GEOMETRIC_REPRESENTATION_CONTEXT(2) 
PARAMETRIC_REPRESENTATION_CONTEXT() REPRESENTATION_CONTEXT('2D SPACE',''
  ) );
#611 = ORIENTED_EDGE('',*,*,#612,.F.);
#612 = EDGE_CURVE('',#22,#487,#613,.T.);
#613 = SURFACE_CURVE('',#614,(#618,#625),.PCURVE_S1.);
#614 = B_SPLINE_CURVE_WITH_KNOTS('',2,(#615,#616,#617),.UNSPECIFIED.,.F.
  ,.F.,(3,3),(0.,1.),.PIECEWISE_BEZIER_KNOTS.);
#615 = CARTESIAN_POINT('',(5.,0.,8.308230419112E-17));
#616 = CARTESIAN_POINT('',(6.997307436162,7.5,5.815761293379E-17));
#617 = CARTESIAN_POINT('',(8.994614872325,15.,3.323292167645E-17));
#618 = PCURVE('',#81,#619);
#619 = DEFINITIONAL_REPRESENTATION('',(#620),#624);
#620 = LINE('',#621,#622);
#621 = CARTESIAN_POINT('',(0.,0.));
#622 = VECTOR('',#623,1.);
#623 = DIRECTION('',(0.,1.));
#624 = ( GEOMETRIC_REPRESENTATION_CONTEXT(2) 
PARAMETRIC_REPRESENTATION_CONTEXT() REPRESENTATION_CONTEXT('2D SPACE',''
  ) );
#625 = PCURVE('',#322,#626);
#626 = DEFINITIONAL_REPRESENTATION('',(#627),#631);
#627 = LINE('',#628,#629);
#628 = CARTESIAN_POINT('',(2.,0.));
#629 = VECTOR('',#630,1.);
#630 = DIRECTION('',(0.,1.));
#631 = ( GEOMETRIC_REPRESENTATION_CONTEXT(2) 
PARAMETRIC_REPRESENTATION_CONTEXT() REPRESENTATION_CONTEXT('2D SPACE',''
  ) );
#632 = ADVANCED_FACE('',(#633),#322,.T.);
#633 = FACE_BOUND('',#634,.T.);
#634 = EDGE_LOOP('',(#635,#754,#755,#874));
#635 = ORIENTED_EDGE('',*,*,#636,.T.);
#636 = EDGE_CURVE('',#24,#22,#637,.T.);
#637 = SURFACE_CURVE('',#638,(#691,#698),.PCURVE_S1.);
#638 = B_SPLINE_CURVE_WITH_KNOTS('',3,(#639,#640,#641,#642,#643,#644,
    #645,#646,#647,#648,#649,#650,#651,#652,#653,#654,#655,#656,#657,
    #658,#659,#660,#661,#662,#663,#664,#665,#666,#667,#668,#669,#670,
    #671,#672,#673,#674,#675,#676,#677,#678,#679,#680,#681,#682,#683,
    #684,#685,#686,#687,#688,#689,#690),.UNSPECIFIED.,.F.,.F.,(4,1,1,1,1
    ,1,1,1,1,1,1,1,1,1,1,1,1,1,1,1,1,1,1,1,1,1,1,1,1,1,1,1,1,1,1,1,1,1,1
    ,1,1,1,1,1,1,1,1,1,1,4),(1.,1.020408163265,1.040816326531,
    1.061224489796,1.081632653061,1.102040816327,1.122448979592,
    1.142857142857,1.163265306122,1.183673469388,1.204081632653,
    1.224489795918,1.244897959184,1.265306122449,1.285714285714,
    1.30612244898,1.326530612245,1.34693877551,1.367346938776,
    1.387755102041,1.408163265306,1.428571428571,1.448979591837,
    1.469387755102,1.489795918367,1.510204081633,1.530612244898,
    1.551020408163,1.571428571429,1.591836734694,1.612244897959,
    1.632653061224,1.65306122449,1.673469387755,1.69387755102,
    1.714285714286,1.734693877551,1.755102040816,1.775510204082,
    1.795918367347,1.816326530612,1.836734693878,1.857142857143,
    1.877551020408,1.897959183673,1.918367346939,1.938775510204,
    1.959183673469,1.979591836735,2.),.QUASI_UNIFORM_KNOTS.);
#639 = CARTESIAN_POINT('',(0.,0.,0.));
#640 = CARTESIAN_POINT('',(-9.506208402063E-04,0.,9.466958283402E-03));
#641 = CARTESIAN_POINT('',(6.129677603472E-04,0.,2.849925855826E-02));
#642 = CARTESIAN_POINT('',(1.333090737527E-02,0.,5.724933934236E-02));
#643 = CARTESIAN_POINT('',(3.641640215633E-02,0.,8.612376904114E-02));
#644 = CARTESIAN_POINT('',(6.980518652262E-02,0.,0.114988428664));
#645 = CARTESIAN_POINT('',(0.113393399255,0.,0.143676068114));
#646 = CARTESIAN_POINT('',(0.167031563853,0.,0.171985719515));
#647 = CARTESIAN_POINT('',(0.230525542862,0.,0.199690022203));
#648 = CARTESIAN_POINT('',(0.303635820489,0.,0.226541538618));
#649 = CARTESIAN_POINT('',(0.386077541693,0.,0.252280120279));
#650 = CARTESIAN_POINT('',(0.477520763965,0.,0.276640417524));
#651 = CARTESIAN_POINT('',(0.577591163601,0.,0.299359415082));
#652 = CARTESIAN_POINT('',(0.685871197875,0.,0.320183675488));
#653 = CARTESIAN_POINT('',(0.80190179445,0.,0.338876053226));
#654 = CARTESIAN_POINT('',(0.925184466946,0.,0.355221664328));
#655 = CARTESIAN_POINT('',(1.055184225984,0.,0.369032940433));
#656 = CARTESIAN_POINT('',(1.191331792885,0.,0.380153664401));
#657 = CARTESIAN_POINT('',(1.333030457092,0.,0.38846187359));
#658 = CARTESIAN_POINT('',(1.479647320577,0.,0.393871818917));
#659 = CARTESIAN_POINT('',(1.630564135242,0.,0.396334298393));
#660 = CARTESIAN_POINT('',(1.785006627481,0.,0.395838169472));
#661 = CARTESIAN_POINT('',(1.942700969279,0.,0.392403045693));
#662 = CARTESIAN_POINT('',(2.101443325622,0.,0.38610111627));
#663 = CARTESIAN_POINT('',(2.261377258732,0.,0.377834893562));
#664 = CARTESIAN_POINT('',(2.422346361344,0.,0.367597252529));
#665 = CARTESIAN_POINT('',(2.58353745414,0.,0.355571642639));
#666 = CARTESIAN_POINT('',(2.744314191813,0.,0.341906034717));
#667 = CARTESIAN_POINT('',(2.903997381121,0.,0.326770326779));
#668 = CARTESIAN_POINT('',(3.061927409205,0.,0.310338263546));
#669 = CARTESIAN_POINT('',(3.217450966489,0.,0.292790102055));
#670 = CARTESIAN_POINT('',(3.369927945733,0.,0.274310240033));
#671 = CARTESIAN_POINT('',(3.518732830478,0.,0.255086669594));
#672 = CARTESIAN_POINT('',(3.663257457608,0.,0.235310329579));
#673 = CARTESIAN_POINT('',(3.802913307109,0.,0.215174752359));
#674 = CARTESIAN_POINT('',(3.937133806763,0.,0.194875757198));
#675 = CARTESIAN_POINT('',(4.065376508967,0.,0.174611105834));
#676 = CARTESIAN_POINT('',(4.187125161561,0.,0.154579995978));
#677 = CARTESIAN_POINT('',(4.301891647585,0.,0.134982295171));
#678 = CARTESIAN_POINT('',(4.409217780464,0.,0.116017437154));
#679 = CARTESIAN_POINT('',(4.508676939205,0.,9.788293305162E-02));
#680 = CARTESIAN_POINT('',(4.599875531669,0.,8.077248313356E-02));
#681 = CARTESIAN_POINT('',(4.682454279033,0.,6.487370950546E-02));
#682 = CARTESIAN_POINT('',(4.756089316141,0.,5.036556694836E-02));
#683 = CARTESIAN_POINT('',(4.820493122043,0.,3.741551034522E-02));
#684 = CARTESIAN_POINT('',(4.875415248667,0.,2.617655869972E-02));
#685 = CARTESIAN_POINT('',(4.920643014064,0.,1.678427829418E-02));
#686 = CARTESIAN_POINT('',(4.956001607533,0.,9.35422187937E-03));
#687 = CARTESIAN_POINT('',(4.981355752909,0.,3.978475401515E-03));
#688 = CARTESIAN_POINT('',(4.996605010875,0.,7.269900292265E-04));
#689 = CARTESIAN_POINT('',(5.000003246436,0.,-2.26926095089E-06));
#690 = CARTESIAN_POINT('',(5.,0.,8.308230419112E-17));
#691 = PCURVE('',#322,#692);
#692 = DEFINITIONAL_REPRESENTATION('',(#693),#697);
#693 = LINE('',#694,#695);
#694 = CARTESIAN_POINT('',(0.,0.));
#695 = VECTOR('',#696,1.);
#696 = DIRECTION('',(1.,0.));
#697 = ( GEOMETRIC_REPRESENTATION_CONTEXT(2) 
PARAMETRIC_REPRESENTATION_CONTEXT() REPRESENTATION_CONTEXT('2D SPACE',''
  ) );
#698 = PCURVE('',#245,#699);
#699 = DEFINITIONAL_REPRESENTATION('',(#700),#753);
#700 = B_SPLINE_CURVE_WITH_KNOTS('',3,(#701,#702,#703,#704,#705,#706,
    #707,#708,#709,#710,#711,#712,#713,#714,#715,#716,#717,#718,#719,
    #720,#721,#722,#723,#724,#725,#726,#727,#728,#729,#730,#731,#732,
    #733,#734,#735,#736,#737,#738,#739,#740,#741,#742,#743,#744,#745,
    #746,#747,#748,#749,#750,#751,#752),.UNSPECIFIED.,.F.,.F.,(4,1,1,1,1
    ,1,1,1,1,1,1,1,1,1,1,1,1,1,1,1,1,1,1,1,1,1,1,1,1,1,1,1,1,1,1,1,1,1,1
    ,1,1,1,1,1,1,1,1,1,1,4),(1.,1.020408163265,1.040816326531,
    1.061224489796,1.081632653061,1.102040816327,1.122448979592,
    1.142857142857,1.163265306122,1.183673469388,1.204081632653,
    1.224489795918,1.244897959184,1.265306122449,1.285714285714,
    1.30612244898,1.326530612245,1.34693877551,1.367346938776,
    1.387755102041,1.408163265306,1.428571428571,1.448979591837,
    1.469387755102,1.489795918367,1.510204081633,1.530612244898,
    1.551020408163,1.571428571429,1.591836734694,1.612244897959,
    1.632653061224,1.65306122449,1.673469387755,1.69387755102,
    1.714285714286,1.734693877551,1.755102040816,1.775510204082,
    1.795918367347,1.816326530612,1.836734693878,1.857142857143,
    1.877551020408,1.897959183673,1.918367346939,1.938775510204,
    1.959183673469,1.979591836735,2.),.QUASI_UNIFORM_KNOTS.);
#701 = CARTESIAN_POINT('',(5.,0.));
#702 = CARTESIAN_POINT('',(5.00095062084,9.466958283402E-03));
#703 = CARTESIAN_POINT('',(4.99938703224,2.849925855826E-02));
#704 = CARTESIAN_POINT('',(4.986669092625,5.724933934236E-02));
#705 = CARTESIAN_POINT('',(4.963583597844,8.612376904114E-02));
#706 = CARTESIAN_POINT('',(4.930194813477,0.114988428664));
#707 = CARTESIAN_POINT('',(4.886606600745,0.143676068114));
#708 = CARTESIAN_POINT('',(4.832968436147,0.171985719515));
#709 = CARTESIAN_POINT('',(4.769474457138,0.199690022203));
#710 = CARTESIAN_POINT('',(4.696364179511,0.226541538618));
#711 = CARTESIAN_POINT('',(4.613922458307,0.252280120279));
#712 = CARTESIAN_POINT('',(4.522479236035,0.276640417524));
#713 = CARTESIAN_POINT('',(4.422408836399,0.299359415082));
#714 = CARTESIAN_POINT('',(4.314128802125,0.320183675488));
#715 = CARTESIAN_POINT('',(4.19809820555,0.338876053226));
#716 = CARTESIAN_POINT('',(4.074815533054,0.355221664328));
#717 = CARTESIAN_POINT('',(3.944815774016,0.369032940433));
#718 = CARTESIAN_POINT('',(3.808668207115,0.380153664401));
#719 = CARTESIAN_POINT('',(3.666969542908,0.38846187359));
#720 = CARTESIAN_POINT('',(3.520352679423,0.393871818917));
#721 = CARTESIAN_POINT('',(3.369435864758,0.396334298393));
#722 = CARTESIAN_POINT('',(3.214993372519,0.395838169472));
#723 = CARTESIAN_POINT('',(3.057299030721,0.392403045693));
#724 = CARTESIAN_POINT('',(2.898556674378,0.38610111627));
#725 = CARTESIAN_POINT('',(2.738622741268,0.377834893562));
#726 = CARTESIAN_POINT('',(2.577653638656,0.367597252529));
#727 = CARTESIAN_POINT('',(2.41646254586,0.355571642639));
#728 = CARTESIAN_POINT('',(2.255685808187,0.341906034717));
#729 = CARTESIAN_POINT('',(2.096002618879,0.326770326779));
#730 = CARTESIAN_POINT('',(1.938072590795,0.310338263546));
#731 = CARTESIAN_POINT('',(1.782549033511,0.292790102055));
#732 = CARTESIAN_POINT('',(1.630072054267,0.274310240033));
#733 = CARTESIAN_POINT('',(1.481267169522,0.255086669594));
#734 = CARTESIAN_POINT('',(1.336742542392,0.235310329579));
#735 = CARTESIAN_POINT('',(1.197086692891,0.215174752359));
#736 = CARTESIAN_POINT('',(1.062866193237,0.194875757198));
#737 = CARTESIAN_POINT('',(0.934623491033,0.174611105834));
#738 = CARTESIAN_POINT('',(0.812874838439,0.154579995978));
#739 = CARTESIAN_POINT('',(0.698108352415,0.134982295171));
#740 = CARTESIAN_POINT('',(0.590782219536,0.116017437154));
#741 = CARTESIAN_POINT('',(0.491323060795,9.788293305162E-02));
#742 = CARTESIAN_POINT('',(0.400124468331,8.077248313356E-02));
#743 = CARTESIAN_POINT('',(0.317545720967,6.487370950546E-02));
#744 = CARTESIAN_POINT('',(0.243910683859,5.036556694836E-02));
#745 = CARTESIAN_POINT('',(0.179506877957,3.741551034522E-02));
#746 = CARTESIAN_POINT('',(0.124584751333,2.617655869972E-02));
#747 = CARTESIAN_POINT('',(7.935698593609E-02,1.678427829418E-02));
#748 = CARTESIAN_POINT('',(4.3998392467E-02,9.35422187937E-03));
#749 = CARTESIAN_POINT('',(1.864424709096E-02,3.978475401515E-03));
#750 = CARTESIAN_POINT('',(3.394989125159E-03,7.269900292264E-04));
#751 = CARTESIAN_POINT('',(-3.246435698046E-06,-2.269260950973E-06));
#752 = CARTESIAN_POINT('',(0.,0.));
#753 = ( GEOMETRIC_REPRESENTATION_CONTEXT(2) 
PARAMETRIC_REPRESENTATION_CONTEXT() REPRESENTATION_CONTEXT('2D SPACE',''
  ) );
#754 = ORIENTED_EDGE('',*,*,#612,.T.);
#755 = ORIENTED_EDGE('',*,*,#756,.F.);
#756 = EDGE_CURVE('',#307,#487,#757,.T.);
#757 = SURFACE_CURVE('',#758,(#811,#818),.PCURVE_S1.);
#758 = B_SPLINE_CURVE_WITH_KNOTS('',3,(#759,#760,#761,#762,#763,#764,
    #765,#766,#767,#768,#769,#770,#771,#772,#773,#774,#775,#776,#777,
    #778,#779,#780,#781,#782,#783,#784,#785,#786,#787,#788,#789,#790,
    #791,#792,#793,#794,#795,#796,#797,#798,#799,#800,#801,#802,#803,
    #804,#805,#806,#807,#808,#809,#810),.UNSPECIFIED.,.F.,.F.,(4,1,1,1,1
    ,1,1,1,1,1,1,1,1,1,1,1,1,1,1,1,1,1,1,1,1,1,1,1,1,1,1,1,1,1,1,1,1,1,1
    ,1,1,1,1,1,1,1,1,1,1,4),(1.,1.020408163265,1.040816326531,
    1.061224489796,1.081632653061,1.102040816327,1.122448979592,
    1.142857142857,1.163265306122,1.183673469388,1.204081632653,
    1.224489795918,1.244897959184,1.265306122449,1.285714285714,
    1.30612244898,1.326530612245,1.34693877551,1.367346938776,
    1.387755102041,1.408163265306,1.428571428571,1.448979591837,
    1.469387755102,1.489795918367,1.510204081633,1.530612244898,
    1.551020408163,1.571428571429,1.591836734694,1.612244897959,
    1.632653061224,1.65306122449,1.673469387755,1.69387755102,
    1.714285714286,1.734693877551,1.755102040816,1.775510204082,
    1.795918367347,1.816326530612,1.836734693878,1.857142857143,
    1.877551020408,1.897959183673,1.918367346939,1.938775510204,
    1.959183673469,1.979591836735,2.),.QUASI_UNIFORM_KNOTS.);
#759 = CARTESIAN_POINT('',(6.994614872325,15.,0.));
#760 = CARTESIAN_POINT('',(6.994234623989,15.,3.786783313361E-03));
#761 = CARTESIAN_POINT('',(6.994860059429,15.,1.139970342331E-02));
#762 = CARTESIAN_POINT('',(6.999947235275,15.,2.289973573695E-02));
#763 = CARTESIAN_POINT('',(7.009181433188,15.,3.444950761646E-02));
#764 = CARTESIAN_POINT('',(7.022536946934,15.,4.599537146566E-02));
#765 = CARTESIAN_POINT('',(7.039972232027,15.,5.747042724566E-02));
#766 = CARTESIAN_POINT('',(7.061427497866,15.,6.879428780609E-02));
#767 = CARTESIAN_POINT('',(7.08682508947,15.,7.987600888106E-02));
#768 = CARTESIAN_POINT('',(7.11606920052,15.,9.061661544712E-02));
#769 = CARTESIAN_POINT('',(7.149045889002,15.,0.100912048112));
#770 = CARTESIAN_POINT('',(7.185623177911,15.,0.11065616701));
#771 = CARTESIAN_POINT('',(7.225651337765,15.,0.119743766033));
#772 = CARTESIAN_POINT('',(7.268963351475,15.,0.128073470195));
#773 = CARTESIAN_POINT('',(7.315375590105,15.,0.13555042129));
#774 = CARTESIAN_POINT('',(7.364688659103,15.,0.142088665731));
#775 = CARTESIAN_POINT('',(7.416688562719,15.,0.147613176173));
#776 = CARTESIAN_POINT('',(7.471147589479,15.,0.152061465761));
#777 = CARTESIAN_POINT('',(7.527827055162,15.,0.155384749436));
#778 = CARTESIAN_POINT('',(7.586473800556,15.,0.157548727567));
#779 = CARTESIAN_POINT('',(7.646840526422,15.,0.158533719357));
#780 = CARTESIAN_POINT('',(7.708617523318,15.,0.158335267789));
#781 = CARTESIAN_POINT('',(7.771695260037,15.,0.156961218277));
#782 = CARTESIAN_POINT('',(7.835192202574,15.,0.154440446508));
#783 = CARTESIAN_POINT('',(7.899165775818,15.,0.151133957425));
#784 = CARTESIAN_POINT('',(7.963553416863,15.,0.147038901012));
#785 = CARTESIAN_POINT('',(8.028029853981,15.,0.142228657056));
#786 = CARTESIAN_POINT('',(8.09234054905,15.,0.136762413887));
#787 = CARTESIAN_POINT('',(8.156213824773,15.,0.130708130711));
#788 = CARTESIAN_POINT('',(8.219385836007,15.,0.124135305418));
#789 = CARTESIAN_POINT('',(8.28159525892,15.,0.117116040822));
#790 = CARTESIAN_POINT('',(8.342586050618,15.,0.109724096013));
#791 = CARTESIAN_POINT('',(8.402108004516,15.,0.102034667838));
#792 = CARTESIAN_POINT('',(8.459917855368,15.,9.412413183155E-02));
#793 = CARTESIAN_POINT('',(8.515780195168,15.,8.606990094361E-02));
#794 = CARTESIAN_POINT('',(8.56946839503,15.,7.795030287901E-02));
#795 = CARTESIAN_POINT('',(8.620765475912,15.,6.984444233358E-02));
#796 = CARTESIAN_POINT('',(8.669464936949,15.,6.183199839133E-02));
#797 = CARTESIAN_POINT('',(8.715371531359,15.,5.399291806848E-02));
#798 = CARTESIAN_POINT('',(8.758301984511,15.,4.640697486174E-02));
#799 = CARTESIAN_POINT('',(8.798085648007,15.,3.915317322065E-02));
#800 = CARTESIAN_POINT('',(8.834565084993,15.,3.230899325342E-02));
#801 = CARTESIAN_POINT('',(8.867596583938,15.,2.594948380219E-02));
#802 = CARTESIAN_POINT('',(8.897050598781,15.,2.014622677934E-02));
#803 = CARTESIAN_POINT('',(8.922812121142,15.,1.496620413809E-02));
#804 = CARTESIAN_POINT('',(8.944780971792,15.,1.047062347989E-02));
#805 = CARTESIAN_POINT('',(8.962872077951,15.,6.713711317672E-03));
#806 = CARTESIAN_POINT('',(8.977015515338,15.,3.741688751748E-03));
#807 = CARTESIAN_POINT('',(8.987157173489,15.,1.591390160606E-03));
#808 = CARTESIAN_POINT('',(8.993256876675,15.,2.907960116906E-04));
#809 = CARTESIAN_POINT('',(8.994616170899,15.,-9.077043803561E-07));
#810 = CARTESIAN_POINT('',(8.994614872325,15.,3.323292167645E-17));
#811 = PCURVE('',#322,#812);
#812 = DEFINITIONAL_REPRESENTATION('',(#813),#817);
#813 = LINE('',#814,#815);
#814 = CARTESIAN_POINT('',(0.,1.));
#815 = VECTOR('',#816,1.);
#816 = DIRECTION('',(1.,0.));
#817 = ( GEOMETRIC_REPRESENTATION_CONTEXT(2) 
PARAMETRIC_REPRESENTATION_CONTEXT() REPRESENTATION_CONTEXT('2D SPACE',''
  ) );
#818 = PCURVE('',#551,#819);
#819 = DEFINITIONAL_REPRESENTATION('',(#820),#873);
#820 = B_SPLINE_CURVE_WITH_KNOTS('',3,(#821,#822,#823,#824,#825,#826,
    #827,#828,#829,#830,#831,#832,#833,#834,#835,#836,#837,#838,#839,
    #840,#841,#842,#843,#844,#845,#846,#847,#848,#849,#850,#851,#852,
    #853,#854,#855,#856,#857,#858,#859,#860,#861,#862,#863,#864,#865,
    #866,#867,#868,#869,#870,#871,#872),.UNSPECIFIED.,.F.,.F.,(4,1,1,1,1
    ,1,1,1,1,1,1,1,1,1,1,1,1,1,1,1,1,1,1,1,1,1,1,1,1,1,1,1,1,1,1,1,1,1,1
    ,1,1,1,1,1,1,1,1,1,1,4),(1.,1.020408163265,1.040816326531,
    1.061224489796,1.081632653061,1.102040816327,1.122448979592,
    1.142857142857,1.163265306122,1.183673469388,1.204081632653,
    1.224489795918,1.244897959184,1.265306122449,1.285714285714,
    1.30612244898,1.326530612245,1.34693877551,1.367346938776,
    1.387755102041,1.408163265306,1.428571428571,1.448979591837,
    1.469387755102,1.489795918367,1.510204081633,1.530612244898,
    1.551020408163,1.571428571429,1.591836734694,1.612244897959,
    1.632653061224,1.65306122449,1.673469387755,1.69387755102,
    1.714285714286,1.734693877551,1.755102040816,1.775510204082,
    1.795918367347,1.816326530612,1.836734693878,1.857142857143,
    1.877551020408,1.897959183673,1.918367346939,1.938775510204,
    1.959183673469,1.979591836735,2.),.QUASI_UNIFORM_KNOTS.);
#821 = CARTESIAN_POINT('',(2.,0.));
#822 = CARTESIAN_POINT('',(2.000380248336,3.786783313361E-03));
#823 = CARTESIAN_POINT('',(1.999754812896,1.139970342331E-02));
#824 = CARTESIAN_POINT('',(1.99466763705,2.289973573695E-02));
#825 = CARTESIAN_POINT('',(1.985433439137,3.444950761646E-02));
#826 = CARTESIAN_POINT('',(1.972077925391,4.599537146566E-02));
#827 = CARTESIAN_POINT('',(1.954642640298,5.747042724566E-02));
#828 = CARTESIAN_POINT('',(1.933187374459,6.879428780609E-02));
#829 = CARTESIAN_POINT('',(1.907789782855,7.987600888106E-02));
#830 = CARTESIAN_POINT('',(1.878545671805,9.061661544712E-02));
#831 = CARTESIAN_POINT('',(1.845568983323,0.100912048112));
#832 = CARTESIAN_POINT('',(1.808991694414,0.11065616701));
#833 = CARTESIAN_POINT('',(1.76896353456,0.119743766033));
#834 = CARTESIAN_POINT('',(1.72565152085,0.128073470195));
#835 = CARTESIAN_POINT('',(1.67923928222,0.13555042129));
#836 = CARTESIAN_POINT('',(1.629926213222,0.142088665731));
#837 = CARTESIAN_POINT('',(1.577926309606,0.147613176173));
#838 = CARTESIAN_POINT('',(1.523467282846,0.152061465761));
#839 = CARTESIAN_POINT('',(1.466787817163,0.155384749436));
#840 = CARTESIAN_POINT('',(1.408141071769,0.157548727567));
#841 = CARTESIAN_POINT('',(1.347774345903,0.158533719357));
#842 = CARTESIAN_POINT('',(1.285997349007,0.158335267789));
#843 = CARTESIAN_POINT('',(1.222919612288,0.156961218277));
#844 = CARTESIAN_POINT('',(1.159422669751,0.154440446508));
#845 = CARTESIAN_POINT('',(1.095449096507,0.151133957425));
#846 = CARTESIAN_POINT('',(1.031061455462,0.147038901012));
#847 = CARTESIAN_POINT('',(0.966585018344,0.142228657056));
#848 = CARTESIAN_POINT('',(0.902274323275,0.136762413887));
#849 = CARTESIAN_POINT('',(0.838401047552,0.130708130711));
#850 = CARTESIAN_POINT('',(0.775229036318,0.124135305418));
#851 = CARTESIAN_POINT('',(0.713019613405,0.117116040822));
#852 = CARTESIAN_POINT('',(0.652028821707,0.109724096013));
#853 = CARTESIAN_POINT('',(0.592506867809,0.102034667838));
#854 = CARTESIAN_POINT('',(0.534697016957,9.412413183155E-02));
#855 = CARTESIAN_POINT('',(0.478834677157,8.606990094361E-02));
#856 = CARTESIAN_POINT('',(0.425146477295,7.795030287901E-02));
#857 = CARTESIAN_POINT('',(0.373849396413,6.984444233358E-02));
#858 = CARTESIAN_POINT('',(0.325149935375,6.183199839133E-02));
#859 = CARTESIAN_POINT('',(0.279243340966,5.399291806848E-02));
#860 = CARTESIAN_POINT('',(0.236312887814,4.640697486174E-02));
#861 = CARTESIAN_POINT('',(0.196529224318,3.915317322065E-02));
#862 = CARTESIAN_POINT('',(0.160049787332,3.230899325342E-02));
#863 = CARTESIAN_POINT('',(0.127018288387,2.594948380219E-02));
#864 = CARTESIAN_POINT('',(9.756427354355E-02,2.014622677934E-02));
#865 = CARTESIAN_POINT('',(7.180275118282E-02,1.496620413809E-02));
#866 = CARTESIAN_POINT('',(4.983390053331E-02,1.047062347989E-02));
#867 = CARTESIAN_POINT('',(3.174279437443E-02,6.713711317672E-03));
#868 = CARTESIAN_POINT('',(1.75993569868E-02,3.741688751748E-03));
#869 = CARTESIAN_POINT('',(7.457698836387E-03,1.591390160606E-03));
#870 = CARTESIAN_POINT('',(1.357995650064E-03,2.907960116906E-04));
#871 = CARTESIAN_POINT('',(-1.298574279218E-06,-9.077043803893E-07));
#872 = CARTESIAN_POINT('',(0.,0.));
#873 = ( GEOMETRIC_REPRESENTATION_CONTEXT(2) 
PARAMETRIC_REPRESENTATION_CONTEXT() REPRESENTATION_CONTEXT('2D SPACE',''
  ) );
#874 = ORIENTED_EDGE('',*,*,#306,.F.);
#875 = ADVANCED_FACE('',(#876),#245,.F.);
#876 = FACE_BOUND('',#877,.T.);
#877 = EDGE_LOOP('',(#878,#879));
#878 = ORIENTED_EDGE('',*,*,#21,.F.);
#879 = ORIENTED_EDGE('',*,*,#636,.F.);
#880 = ADVANCED_FACE('',(#881),#551,.T.);
#881 = FACE_BOUND('',#882,.T.);
#882 = EDGE_LOOP('',(#883,#884));
#883 = ORIENTED_EDGE('',*,*,#486,.T.);
#884 = ORIENTED_EDGE('',*,*,#756,.T.);
#885 = ( GEOMETRIC_REPRESENTATION_CONTEXT(3) 
GLOBAL_UNCERTAINTY_ASSIGNED_CONTEXT((#889)) GLOBAL_UNIT_ASSIGNED_CONTEXT
((#886,#887,#888)) REPRESENTATION_CONTEXT('Context #1',
  '3D Context with UNIT and UNCERTAINTY') );
#886 = ( LENGTH_UNIT() NAMED_UNIT(*) SI_UNIT(.MILLI.,.METRE.) );
#887 = ( NAMED_UNIT(*) PLANE_ANGLE_UNIT() SI_UNIT($,.RADIAN.) );
#888 = ( NAMED_UNIT(*) SI_UNIT($,.STERADIAN.) SOLID_ANGLE_UNIT() );
#889 = UNCERTAINTY_MEASURE_WITH_UNIT(LENGTH_MEASURE(1.E-07),#886,
  'distance_accuracy_value','confusion accuracy');
#890 = PRODUCT_RELATED_PRODUCT_CATEGORY('part',$,(#7));
ENDSEC;
END-ISO-10303-21;
